<svg id="visual" viewBox="0 0 960 100" width="960" height="100" xmlns="http://www.w3.org/2000/svg" xmlns:xlink="http://www.w3.org/1999/xlink" version="1.1"><rect x="0" y="0" width="960" height="100" fill="#001220"></rect><path d="M0 30L12.3 28.8C24.7 27.7 49.3 25.3 74 23.3C98.7 21.3 123.3 19.7 148 18.7C172.7 17.7 197.3 17.3 221.8 19.7C246.3 22 270.7 27 295.2 27.3C319.7 27.7 344.3 23.3 369 24.2C393.7 25 418.3 31 443 33.8C467.7 36.7 492.3 36.3 517 34.8C541.7 33.3 566.3 30.7 591 30.5C615.7 30.3 640.3 32.7 664.8 30.8C689.3 29 713.7 23 738.2 23C762.7 23 787.3 29 812 28C836.7 27 861.3 19 886 16C910.7 13 935.3 15 947.7 16L960 17L960 101L947.7 101C935.3 101 910.7 101 886 101C861.3 101 836.7 101 812 101C787.3 101 762.7 101 738.2 101C713.7 101 689.3 101 664.8 101C640.3 101 615.7 101 591 101C566.3 101 541.7 101 517 101C492.3 101 467.7 101 443 101C418.3 101 393.7 101 369 101C344.3 101 319.7 101 295.2 101C270.7 101 246.3 101 221.8 101C197.3 101 172.7 101 148 101C123.3 101 98.7 101 74 101C49.3 101 24.7 101 12.3 101L0 101Z" fill="#ab9873"></path><path d="M0 38L12.3 38.8C24.7 39.7 49.3 41.3 74 41.7C98.7 42 123.3 41 148 40.5C172.7 40 197.3 40 221.8 40.2C246.3 40.3 270.7 40.7 295.2 40C319.7 39.3 344.3 37.7 369 40.2C393.7 42.7 418.3 49.3 443 50.7C467.7 52 492.3 48 517 44.5C541.7 41 566.3 38 591 35.7C615.7 33.3 640.3 31.7 664.8 34.8C689.3 38 713.7 46 738.2 47.7C762.7 49.3 787.3 44.7 812 45C836.7 45.3 861.3 50.7 886 50.7C910.7 50.7 935.3 45.3 947.7 42.7L960 40L960 101L947.7 101C935.3 101 910.7 101 886 101C861.3 101 836.7 101 812 101C787.3 101 762.7 101 738.2 101C713.7 101 689.3 101 664.8 101C640.3 101 615.7 101 591 101C566.3 101 541.7 101 517 101C492.3 101 467.7 101 443 101C418.3 101 393.7 101 369 101C344.3 101 319.7 101 295.2 101C270.7 101 246.3 101 221.8 101C197.3 101 172.7 101 148 101C123.3 101 98.7 101 74 101C49.3 101 24.7 101 12.3 101L0 101Z" fill="#a28d64"></path><path d="M0 57L12.3 56.8C24.7 56.7 49.3 56.3 74 59.2C98.7 62 123.3 68 148 68C172.7 68 197.3 62 221.8 61.2C246.3 60.3 270.7 64.7 295.2 66.2C319.7 67.7 344.3 66.3 369 65.5C393.7 64.7 418.3 64.3 443 63.2C467.7 62 492.3 60 517 59.2C541.7 58.3 566.3 58.7 591 60.5C615.7 62.3 640.3 65.7 664.8 64.5C689.3 63.3 713.7 57.7 738.2 55.7C762.7 53.7 787.3 55.3 812 57.5C836.7 59.7 861.3 62.3 886 62.5C910.7 62.7 935.3 60.3 947.7 59.2L960 58L960 101L947.7 101C935.3 101 910.7 101 886 101C861.3 101 836.7 101 812 101C787.3 101 762.7 101 738.2 101C713.7 101 689.3 101 664.8 101C640.3 101 615.7 101 591 101C566.3 101 541.7 101 517 101C492.3 101 467.7 101 443 101C418.3 101 393.7 101 369 101C344.3 101 319.7 101 295.2 101C270.7 101 246.3 101 221.8 101C197.3 101 172.7 101 148 101C123.3 101 98.7 101 74 101C49.3 101 24.7 101 12.3 101L0 101Z" fill="#998356"></path><path d="M0 74L12.3 76C24.7 78 49.3 82 74 83.3C98.7 84.7 123.3 83.3 148 83.2C172.7 83 197.3 84 221.8 82.8C246.3 81.7 270.7 78.3 295.2 76.8C319.7 75.3 344.3 75.7 369 75.8C393.7 76 418.3 76 443 75.5C467.7 75 492.3 74 517 74.5C541.7 75 566.3 77 591 76.5C615.7 76 640.3 73 664.8 71.8C689.3 70.7 713.7 71.3 738.2 71.3C762.7 71.3 787.3 70.7 812 70.7C836.7 70.7 861.3 71.3 886 72.5C910.7 73.7 935.3 75.3 947.7 76.2L960 77L960 101L947.7 101C935.3 101 910.7 101 886 101C861.3 101 836.7 101 812 101C787.3 101 762.7 101 738.2 101C713.7 101 689.3 101 664.8 101C640.3 101 615.7 101 591 101C566.3 101 541.7 101 517 101C492.3 101 467.7 101 443 101C418.3 101 393.7 101 369 101C344.3 101 319.7 101 295.2 101C270.7 101 246.3 101 221.8 101C197.3 101 172.7 101 148 101C123.3 101 98.7 101 74 101C49.3 101 24.7 101 12.3 101L0 101Z" fill="#907848"></path></svg>